<svg viewBox="0 0 1024 1024" xmlns="http://www.w3.org/2000/svg"><path d="M129.6 738.6c-5.3-3.6-6.8-9.8-9.7-14.9-15.2-26.9-26.6-55.5-35.5-85.1-14.3-47.3-19.8-95.7-18.1-145 2.3-63.6 17.9-123.9 46-180.9 7.3-14.9 15.5-29.3 24.8-43 3.7-2.4 7.9-1.7 12-1.7h725.8c3.9 0 7.8-0.6 11.4 1.6 13.8 19.6 24.6 40.9 34.2 62.9 30.6 70 42.3 143.1 35.5 219.2-3.2 36-10.4 71.2-22.4 105.3-9.4 26.7-20.8 52.5-35.3 76.8-1.1 1.8-1.8 4-4.1 4.8" fill="#FDC200" p-id="1563"></path><path d="M889.3 739c1.9 0 3.9-0.2 5.8-0.2-0.4 6.2-5 10.4-8.1 15.1C846.2 816.5 793.2 866 727.8 902c-45.7 25.2-94.3 41.8-146 49.7-58.5 9-116.6 6.9-174-6.9-58.5-14-112-39.2-160.4-75.2-43.5-32.3-79.9-71.3-109.5-116.7-2.9-4.4-6.7-8.5-7.3-14.1l758.7 0.2z m-749-472.6c23.8-36.6 52.7-68.7 86.1-96.8 33.6-28.2 70.5-51 110.8-68.2 34.9-14.9 71-25.3 108.6-30.8 35.5-5.2 71.4-6.3 107.1-3.2 51.6 4.5 101 17.7 147.9 39.5 53.4 24.9 100.1 59 139.9 102.4 16.6 18.1 32.2 37.1 45.1 58.1-3.1 2.1-6.7 1.2-10.1 1.2-209.2 0.1-418.5 0-627.7 0-33.5 0-66.9 0-100.4-0.1-2.5 0.2-5.9 1.7-7.3-2.1z m0 0" fill="#C40B1E" p-id="1564"></path><path d="M498 576.3c-1.5-9.6 0.4-19.1 1-28.6 0.1-0.7 0.2-1.4 0.4-2.1 1.9-3.6 5-6.4 7.4-9.7 6.6-4.8 13.5-8.9 22.1-8.5 1.5 0.1 2.8-0.8 4.2-1.3 14.3 3.8 22.8 13 25.6 27.5 0.5 2.7 0.8 5.7 4 6.9 14.8 1.3 29.7 0.4 44.5 0.5 16.6 0.1 13.8 1.2 13.9 13.6 0.1 12.1-0.5 24.1 0.2 36.2 0.9 16.4-1.8 31.6-11.8 45-0.3 0.3-0.7 0.4-1.1 0.4-6.7 4.1-13.2 8.4-20.8 10.6l0.1-0.1c-6.1 3.2-12.7 1.4-19.1 1.7-2.6 0.1-5.2 0-7.7 0-8.4 0.6-13.9-5-20-9.4-0.8-0.6-1.4-1.3-2.1-2-2.1-3.1-4.6-5.7-6.9-8.6-2.6-4-18.4 10.4-20.8 6.3-1.8-8.5-1.1-22.5-1.7-31.1-0.2-2.6-0.9-33.7-1.3-36.2" fill="#AA1619" p-id="1565"></path><path d="M560.2 561.8c-2.7-1.2-2-3.8-2.6-6-2.6-11.5-6.6-21.9-19.6-25.2-1.9-0.5-2.3-4-5.1-2.3-4.3-0.2-6.8-1.9-6.8-6.6 0-18.9-0.2-37.8 0.1-56.7 0-1.1 0.3-2.1 0.7-3.1 2.1-3.7 5.6-4.3 9.4-4.4 26-0.7 52.1 1.1 78.1 0.5 5.7-0.1 6.5 3.2 6.8 7.9 0.8 17.2 0.3 34.4 0.7 51.6 2.4 8.1 1.8 16.1-0.7 24v-0.1c1.7 5.8-0.6 11.5-0.2 17.2 0.2 2.7-1.6 3.6-4.2 3.5-18.9-0.2-37.8 0.7-56.6-0.3z m0 0" fill="#DADADA" p-id="1566"></path><path d="M585.6 443.6c-2.2 2 3.1 6 3.7 8.1 2.2 7.5-9.8 4.1-13.6 5.6-1.1 0.4 22.6-0.9 21.5 0.2 12.1 0 3-0.7 15.1-0.7 10 0 10 0 10 10.3l0.3 50.4c-0.5 0.5-1 0.5-1.5 0-0.3-17.2-0.9-34.4-0.9-51.6 0-5.2-1.8-6.7-6.7-6.7-26 0.1-132.6 0.2-149.5 0-12.6-5 1.6-19-1.6-15.6h123.2z m0 0" fill="#9F8604" p-id="1567"></path><path d="M519.4 356.6c1.4-0.4 2.8-0.4 4.3-0.3 4.2-0.3 8 1.6 12 2.5 4.9-1.7 9.8-2.9 15-3.5 10.2-1.3 17.2 5.2 25.3 9.3 1 0.5 0.9 2.3 2.9 1.8 11-2.8 21.5-1.3 31.5 3.9 9.8 5.1 15.7 15.3 14.9 23.9 0.1 11.1-21.2 39.9-39.6 49.5H462.4c-9.2-1.1-49.9-51.7-38.5-68.5" fill="#9F8604" p-id="1568"></path><path d="M423 376.2c9.2-19.9 45-11 47.8-10.8 3.8 0.3 7.3-5.4 9.8-8.4 0 0 10-6.7 16.1-2.7 7 3 15.7 5.6 22.7 2.3" fill="#9F8604" p-id="1569"></path><path d="M652 535.9c-1.5-0.6-2.4-2.9-4.4-2.1-6.5 2.7-13.5 1.7-20.3 3-3.3 0.6-4.9 2.2-6.2 4.7-0.7-8-0.8-16 0-24.1h1.5c8.9-0.5 17.8-1.1 26.7-1.6 1-0.5 1.9-1 3.1-1.2 2.9-0.3 5.8-0.2 8.6 0.3 6.7 2.1 14-0.6 20.6 2.5 4.7 4.9 11.6 5.8 17 9.5 4.5 3 6.3 6.1 4.2 11.3-0.8 1.8-1.2 3.7-1.7 5.5-2.6 9-8.1 14.3-17.9 14.1" fill="#AB2C17" p-id="1570"></path><path d="M682.5 574.1c1.8 0.7 3.7 1.3 5.4 2 15.6 6.7 13.7 10.5 10.2 24.7-1.1 4.4-6.9 5-7.9 9.7-0.1 0.6-1.9-0.4-2.4-1.4-1.4-2.7-2.7-5.7-0.8-8.6 2.9-4.6 0.7-6.9-3.4-8.6-0.6 0.3-1.2 0.4-1.8 0.4-3.8-1.3-7.6-2.6-11.5-3.8-5.1-2.1-10.1-4.4-15.3-6.4-3.4-0.6-3.9-4.5-6.6-6-1.3-0.8-2.6-1.5-3.8-2.4-7.7-5.8-9.9-15.7-4.8-23.7 1.3-2 3.6-3.8 6.4-3.9 2.3 0 4.2-0.8 5.8-2.4" fill="#AB1719" p-id="1571"></path><path d="M411.9 571.6c-4 1.9-21.8 14.3-26 15.8-3.7 1.9-7.8 2.8-11.5 4.6-1.4 0.7-2.9 0.3-4.4 0.2-3.8 2-3.4 5.1-2.2 8.3 1.1 3 1.7 6.2-1.5 8.1-3.4 2.1-10.2-11.7-12.3-13.3-7.1-5.5 5.7-19.1 13.8-23.3 10.5-7.4 33.1-26 35.6-27.8" fill="#AA1819" p-id="1572"></path><path d="M402.9 542.7c4.6 0.9 12.4 5.4 13.1 10.7 0.9 6.7 3.9 14-4.7 18.6" fill="#AA1819" p-id="1573"></path><path d="M433.6 532.7c-29.3-9.2-53.3 25.2-60.3 25.2-9.4-1.4-26.6-14.5-25-23.7 0.9-5 19.2-13.4 23.5-15.4 1.6-2.4 56.4-5.7 61.8-1.6" fill="#A9231A" p-id="1574"></path><path d="M412.6 653.4c-1.2 1.5-2.8 1.9-4.6 1.9-13.4 0.3-26.7 0.3-40.1 0-1.8-0.1-3.4-0.4-4.6-1.9 0.8-8 5.8-14.4 8-21.9 0.8-0.7 1.8-1.5 2.8-1.3 9.9 1.9 19.8-0.1 29.7 0 1.6 1.4 2.6 5.2 2.6 5.2" fill="#B9A303" p-id="1575"></path><path d="M443.8 653.6c2-2 1.1-4.5 1.1-6.7 0.1-24.1 0-48.2 0-72.2 0-1.7-0.1-3.5 0.1-5.2 0.3-2.6 0.9-5.5 3.7-6.2 3.5-0.9 2 3 3.6 4.2 0.5 0.4 1.2 0.4 1.8 0.6 1.9 1.9 1.7 4.4 1.7 6.7 0.1 26.1 0.1 52.2-0.1 78.3 0 3.2 1.5 8.9-5.6 7l-6.3-6.5z m0 0" fill="#A31518" p-id="1576"></path><path d="M541 657.3c6.2 2.6 9.8 10.1 17.7 9.3 4.5 1.9 9.4 1 13.9 2.3 2.1 0.6 5.5 1.3 1.5 4.2-7.3 0.5-13.9 3.8-21 5.1-21.6 4.5-42.9 3.1-64-2.7h0.1c-1.7-1.4-4-0.9-5.9-1.7-2.1-0.9-4.2-2.1-3.3-5.1 1-0.9 9.7-0.5 11-0.6 2.8-0.2 12.1-4.2 14.8-5 1.2-0.3 18.1-12.3 22.1-22.6" fill="#CECECB" p-id="1577"></path><path d="M681.7 591.6l1.9 0.2c0.1 14.6-1.6 29.2 1 43.7 0.5 2.5 1.5 4.3 2.8 6.3-0.6 3.6-3.7 3.2-6.1 3.3-9.9 0.3-19.8 0.4-29.7-0.1-2.6-0.1-6.5 0.4-5.8-4.5 4.3-3.5 3.3-8.9 3.5-13.1 0.7-15.9 0.3-31.9 0.3-47.9 0-1.2-0.8-2.4-1.2-3.6 3.2-0.1 3.6 3.7 6.2 4.4-0.6 13.3-0.3 26.7-0.3 40 0 7.3 0.6 7.7 7.6 7.9 3.2 0.1 6.4-0.1 9.7 0.1 8.4-0.5 8.5-0.5 8.5-8.9 0.1-6.8 0-13.6 0-20.5 0.1-2.5-0.2-5.1 1.6-7.3z m0 0" fill="#A8920A" p-id="1578"></path><path d="M436 563c6.1-1.2 7.7 1.5 7.6 7.4-0.3 22.3-0.2 44.7-0.1 67 0 4.8-0.2 9.3-2.4 13.6-4.2-2.2-4.8-6.7-6.3-10.5 0.5-0.7 1-1.5 0.8-2.4-4.1-23.2-0.4-46.5-1.6-69.8 0-2 0.5-3.8 2-5.3z m0 0" fill="#B8A100" p-id="1579"></path><path d="M373.6 459.1c0.6-5.6-6.1-6.9-7-11.6 3-1.9 6.9 0.3 9.8-2.1 8.6 1 7.4-6 8.9-10.8v-0.1c2.4-1.4 3.5 0 4.3 2 2.6 6.7 2.6 6.7 7.6 1.6l6.2 0.7c-1.5 3.7-2.3 7 3.2 8 0.8 0.1 1.3 1 0.8 2l-3.9 5.3c-4.2 6.5 2.5 5 5 6.7l0.1 2.3c-0.7 1.3-1.7 1.9-3.2 1.6-9.4-1.8-18.9-0.6-28.4-1-2.7-0.1-5.5 0-7.5-2.2 1-2.2 3.2-1.1 4.1-2.4z m0 0" fill="#6D5703" p-id="1580"></path><path d="M665.2 566.8c-12.2-4.4-12.2-4.4-12.8-16.7-0.1-2.1-0.3-4.2-0.4-6.4 0-2.6 0.1-5.2 0.1-7.9 1.5-1.8 2.9-3.6 5.4-1.4 2.8 1.2 5.5 2.1 8.6 1.9 4.4-0.2 6.9 2.2 7.3 6.4 0.6 6.6 0.6 13.3 0 19.9-0.5 5.7-3.9 5.9-8.2 4.2z m0 0" fill="#D9D8D8" p-id="1581"></path><path d="M652.3 515.9l-3-0.1c0.5-9.1 1.7-18.3 1.3-27.4-0.2-5.4 0-11.4-3.6-16.2 0.5-3.3 3.3-3.1 5.5-3.2 9-0.4 18-0.4 27 0.1 2.4 0.1 6.2-0.2 5.1 4.4-2.8 1.9-0.3 3.9-0.3 5.9 0 2.4-0.5 5-2.1 7.1-6.6-0.8-13.1-1.1-19.7-0.7-7.8 0.5-8.2 0.8-8.3 8.7-0.1 4.9 0.1 9.9-0.1 14.8 0 2.3 0.1 4.8-1.8 6.6z m0 0" fill="#A38F09" p-id="1582"></path><path d="M684.7 473.5c-0.1-1.8-1.1-2.6-2.9-2.6-10.8 0-21.7 0-32.5 0.1-0.7 0-1.4 0.8-2.1 1.2-4.1-1.9-4.6-5.5-3.5-9.1 1.3-4.6 5.5-3.8 9-3.9 4-2 7.8 0.6 11.9 0.2 6.1-0.6 12.1-0.9 17.5-4.2 0.3 1.4 0 2.9 1.7 3.8 6.5 3.8 6.8 9.3 0.9 14.5z m0 0" fill="#C1A900" p-id="1583"></path><path d="M645.8 640.6c0.2 1.7 1.2 2.6 3 2.6 12.1 0 24.3 0 36.4-0.1 0.7 0 1.4-0.8 2.1-1.2 2.2 3.6 0.6 8.4 3.9 11.7-1.2 1.4-2.9 1.8-4.7 1.9-12.9 0.3-25.9 0.4-38.8-0.1-1.8-0.1-3.5-0.4-4.6-1.9 1.1-4.3-2.1-9.5 2.7-12.9z m0 0" fill="#C1AB01" p-id="1584"></path><path d="M406.7 468.7c-1.8 5.1-0.8 15.6-3.2 20.6-4.7-3.6-10.2-3.6-15.8-3.7-5.1-0.1-10.4 1.5-15.1-1.5-3.8-2.7-1-12.1-3-15.3" fill="#A48F08" p-id="1585"></path><path d="M371.9 518.8l0.6-34.8c8.8-0.1 17.5-0.1 26.3-0.4 4.5-0.2 3.2 3.7 4.7 5.6 0 2.9-0.1 5.9-0.1 8.8-1.1 3.9-0.6 7.9-0.2 11.9 0.2 2.1 0.7 4.2-0.8 6.1l-30.5 2.8z m0 0" fill="#B7B2AB" p-id="1586"></path><path d="M406.2 473.5c-0.3-2.2-1.7-2.7-3.7-2.7h-29.1c-2 0-3.4 0.5-3.7 2.7-4.2-2.4-6.3-5.9-4.8-10.7 1.3-4.2 5.2-3.7 8.6-3.8l-2.7 2.3c12.8 1.2 25.4-0.9 37.8 1.6 2 4.3 0.8 7.7-2.4 10.6z m0 0" fill="#BDA600" p-id="1587"></path><path d="M665.2 566.8c4.9 0.7 7-1.1 6.6-6.4-0.4-5.3-0.2-10.7-0.1-16.1 0.1-5.1-1.9-7.7-7.2-7.4-2.6 0.1-5.2-0.2-7-2.4l18.3 1.9c0.8-0.4 1.6-0.2 2.3 0.3 6.9 5.8 3.2 14.1 5.2 21.1-1.4 5.3-1.1 10.8-0.8 16.2-6.4-0.9-11.5-4.9-17.3-7.2z m0 0" fill="#BEB7B1" p-id="1588"></path><path d="M662.7 484c4.9 0 9.9 0 14.8-0.2 2.2-0.1 3.8 0.6 4.7 2.6l-0.5 30.9c-6.9 1-13.8 0.4-20.5-1.1 8.5-2.2 9.6-8.4 8.8-15.8-0.2-1.9-0.2-3.9 0-5.8 0.3-4.2-0.3-7.7-5.4-8.5-1.2 0-2-0.8-1.9-2.1z m0 0" fill="#C3C3C0" p-id="1589"></path><path d="M639.1 669.6c-2.9-5.4-2.3-6.9 2.7-8.9 6.2-2.5 12.3-2.7 18.8-0.7 4.7 1.5 9.8 1.3 14.5-0.6 6.6-2.6 15.9 0.1 19.4 5 0.9 1.4 0.8 2.9 0.5 4.4" fill="#1C5DA4" p-id="1590"></path><path d="M681.9 455.2c-8.7 9.3-19.1 6.2-29.3 4-0.2-3.3-1.9-5.7-4.4-7.6 9-5.6 19-5.2 29-4 2.4 0.3 4.8 1.7 6.3 4l-1.6 3.6z m0 0" fill="#685303" p-id="1591"></path><path d="M694.9 671.9c0.5 4.4 0.3 7.5-5.7 4.9-5.5-2.4-11.4-1.9-17 0-3.4 1.1-6.7 1.8-10 0.4-6.5-2.7-13-2.7-19.5-0.3-2.5 0.9-4.7 1.5-5.3-2.1 0.1-1.4-0.3-3 1.2-3.9 7.4-2.7 15-3.7 22.6-1.1 4.5 1.5 9.1 0.7 13.3-0.6 7.4-2.2 13.9-0.5 20.4 2.7z m0 0" fill="#27639F" p-id="1592"></path><path d="M414.8 654.6c3 6.8 2.5 14.9 2 23.3-6-2.1-17.6-3.4-23.7-0.9-3.6 1.5-7 1-10.7-0.1-6.2-1.9-14.3-2.3-20.7 0-6.7 0.9-1.9-20.8-2.1-23.4" fill="#2C6498" p-id="1593"></path><path d="M661.1 448.9c-4.5 0-8.1 4.1-12.9 2.7-1.2-0.4-2.1-1.5-2.4-2.7-0.3-5.3 2.7-9.3 8.1-8.6 8.9 1.1 17.7-0.4 26.5 0.9 2.8 0.4 5.8 0.9 7 3.9 1.3 3.5-2.1 4.7-3.9 6.6l-0.1-0.1-22.3-2.7z m0 0" fill="#7E2F0E" p-id="1594"></path><path d="M683.5 451.7c4.6-6.7 3.7-8.9-4.6-9.1-3.7-0.1-8-2.8-11.3 1.3-3.3-3-7.5-1.1-11.3-2-5.1-1.3-9.4 1.8-10.5 7-2.1-5.6-0.4-8.7 4.6-10.6 4.9-1.8 10.9-0.8 14.6-5.7 0.8-1.1 2.4-1 3.5 0.2 3.6 4.1 8.6 5.2 13.6 5.7 3.4 0.3 6 1.3 6.3 5.1 0.3 3.7 0.4 7.5-4.9 8.1z m0 0" fill="#986C02" p-id="1595"></path><path d="M638.3 671.8l-0.9 3c-0.4-6.5-0.9-12.9 0.2-19.3 0.4 0.2 0.9 0.5 1.2 0.4 12.7-3.5 25.4 3.4 38.2-0.6 6.1-1.9 12.4-0.2 17.8 3.5 0.6 1.9 0.4 3.8-0.4 5.6-7-2.4-13.3-7.3-21.5-2.3-3.9 2.3-9.4 1.8-13.8-0.5-7.1-3.8-13.4-0.2-19.7 1.7-2.6 0.8-2 3.8-0.1 5.7 0.8 1.4-0.5 2-1 2.8z m0 0" fill="#AFB2B6" p-id="1596"></path><path d="M417.1 671.6c-2.6 0.4-5-0.1-7.5-0.7-5.4-1.2-11-1.8-16.2 0.8-2.4 1.1-4.9 1.5-7.5 0.8-7.2-2.2-14.5-3.3-21.9-0.6-1.3 0.5-3-0.1-4.4-0.2V669c8.4-3.6 16.7-5.4 25.2-0.3 1.9 1.1 4.5 1.1 6.2 0 7.8-4.7 15.5-3.4 23.3-0.3 1.3 0.5 2-0.3 2.7-0.9 0.1 1.3 0.1 2.7 0.1 4.1z m0 0" fill="#A4B2C1" p-id="1597"></path><path d="M540.1 357c-0.9 0-3.5 1.8-4.4 1.8-2-0.1-2.6-1.7-4.6-1.8-0.6-0.1-3.4 0.2-3.9 0-1.3-0.5-8.6 0-9.7-1-0.3-0.5 0.8-6.6 0.7-7.2 0.5-2.5 4.7-4.4 3.2-6.4 1.9-2.1 0.5-4-0.4-5.9-1.8-3.9-1.1-7.1 2.8-9.3 2.5-1.4 4.7-2.1 6.6 1 1.9 3.1 6.3 5.6 1 9.5-1.9 1.4-0.5 3.1 0.5 4.5-0.1 1.8-1.8 3.8 0.2 5.4 1.3 1 2.4-0.3 3.4-1 1.7 3.7-0.2 7.7 4.6 10.4z m0 0" fill="#B79401" p-id="1598"></path><path d="M694.8 658.9c-2.5-0.3-5-0.1-7.5-1.4-3.8-2-7.8-1.7-11.8 0-5 2.2-10.6 2.3-15.7 0.4-6-2.1-11.7-2.7-17.3 0.6-3.6 2.1-5 0.8-4.9-3 1.3-2 3.6-1.8 5.6-2.1l48.1 0.1c3.3 0.4 5 1.8 3.5 5.4z m0 0" fill="#1F5E9B" p-id="1599"></path><path d="M359.5 658.6c8.4-1.7 16.6-3.7 25.2-0.1 3.5 1.4 8 0.6 12-0.9 3.2-1.1 6.7-2.2 10.1-0.9 2.3 0.9 6.2 1.8 5.3 4.5-1.2 3.5-3.8 0.1-5.7-0.5-2.3-0.8-4.9-1.4-7-0.4-7.5 3.6-14.6 3-22.2 0.1-3.1-1.2-7.1-1.4-10.5 1.1-2.1 1.6-4.7 1.9-7.4 1.4l0.2-4.3z m0 0" fill="#ABB4BE" p-id="1600"></path><path d="M638.3 671.8c0.4-0.9 0.7-1.8 1.1-2.8 6-3.2 12.1-3.5 18.6-1.7 4.7 1.3 9.5 2.7 14.4 0.4 7.7-3.5 15.1-0.2 22.6 1.1l0.1 3c-19-1.6-37.9-1.8-56.8 0z m0 0" fill="#A8B7C6" p-id="1601"></path><path d="M409.9 526.3c-6.5-3.7-1.8-5.6 1.1-8 0.6-0.5 1-1.4 1.5-2.1l4 0.1c-1.4 4.8 0.7 9.6 0.1 14.5" fill="#B7610D" p-id="1602"></path><path d="M402.1 535.7c0.9 2.7-0.2 5.8 1.3 8.4v0.1c-0.3 4.6-1.7 9.2-0.5 13.9 0.7 2.7-1.2 3.2-3.3 3.5-3.2 0.1-4.1-2.2-4.3-4.6-0.5-5.8-0.7-11.6 0.1-17.3 0.6-3.5 2.4-6.1 6.7-4z m0 0" fill="#CFCBC8" p-id="1603"></path><path d="M385.3 434.6c0.1 1 0 2.1 0.2 3.1 1.3 7.4-1 9.7-9 8.5-2.4-1.8-3.9-4.3-5.6-6.6 3.8-4.3 10.1-1.9 14.4-5z m11.9 3.5c-1 2.9-1.1 7.1-5.4 6.4-3.3-0.5-4.4-3.6-3.4-7 0.7-2.5-1.3-2.7-3-3-0.1-2-0.3-4.2 2.3-4.6 1.7-0.3 2.6 1.4 2.9 2.9 0.6 3.8 5.4 2.3 6.6 5.3z m0 0" fill="#945409" p-id="1604"></path><path d="M366.6 447.5c-1.2-4.1 0.3-6.7 4.2-7.9 3.9 0.5 4.8 3.5 5.6 6.6l-9.8 1.3z m0 0" fill="#9E2D11" p-id="1605"></path><path d="M407.4 448.9c-0.7-0.4-1.3-1.1-2.1-1.2-2.2-0.3-4.8 0.1-5.5-3-0.8-3.2 1.6-4.4 3.6-5.9 4.1 2.3 7.8 4.7 4 10.1z m0 0" fill="#9D400E" p-id="1606"></path><path d="M535.6 346.6c-0.1 1.7 0.1 3.6-2.4 3.7-1.9 0-3.4-0.7-3.9-2.6-0.5-2.4-0.6-4.8 2.6-5.4 1.2 1.4 2.5 2.8 3.7 4.3z m-14.2-4.2c5.7 0.3 4.3 3.4 2.6 6.7-2.6 1.9-4.8 1.4-6.5-1.2-0.3-3 2-4.1 3.9-5.5z m0 0" fill="#7C7F43" p-id="1607"></path><path d="M408.5 460.8c-2.6-0.1-5.1-0.3-7.8-0.4-0.1-2.8 1-4.7 2.8-6.3-1.5 4.7 3.2 4.6 5 6.7z m0 0" fill="#BDA600" p-id="1608"></path><path d="M568.1 608.3c-3-3.6-5.7-7-10.8-8.4-5.7-1.6-5.2-8.4-7.1-12.9-0.6-1.4 1.8-2.8 3.2-1.6 4.4 3.7 12.6 3.5 12.5 12.1 0 2.6 2.6 5.6 4.9 4.8 2.5-0.9 1.9-4.8 0.5-6.7-2.8-3.9-4.2-7.2-1-11.7 1.4-2-0.7-4.1-2.2-5.5-1.8-1.6-3.1 0-4.4 1.1-2.4 2.1-5.6 2.8-7.5 0.7-1.9-2.2-0.1-5.6 1.2-7.8 1.7-2.8 4.5-0.1 6.5-0.2 6.8-0.5 13.6 0.7 20.4-0.2 1.2-0.2 2.4-1.2 3.6-1.2 6 0.1 11.5 4 18.3 0.6 3-1.5 6 3.6 3.3 7.8-2.6 4-2.8 7.5 0.4 11.1 1.1 1.2 1.3 2.9 0.8 4.3-3.2 9.6-0.1 19.3-0.7 28.8-0.4 7.1-3.8 14.5-7.6 20.7-2 3.3-7.4 4.7-8.9 9.4-0.1 0.4-0.6 0.9-0.9 0.9-7.8 0.8-15 6-23.3 3.5-0.2-0.1-0.4-0.3-0.6-0.3-10.8 1.5-16-7.8-23.5-12.4-1.1-0.6-2.7-1.9-2.6-2.6 1-8-4.1-14.7-4-22.9 0.1-6.8 1.9-13.9 0.2-20.5-0.8-3.1-1-4.6 1.7-4.6 3.3-0.1 4.1-6.2 7.2-3.3 2.8 2.7-1.6 5.1-2.5 7.8-0.8 2.6-1.2 5.6 0.7 8 1.4 1.7 4.1 2.1 5.3 1.2h16.9z m0 0" fill="#C29C04" p-id="1609"></path><path d="M517.8 582.8c-9.1-5.3-12.9-13.7-12.5-23.8 0.4-9.7 4-17.8 13.5-22.4 9.1-4.4 21.1 0.1 26.1 9.9 6.9 13.5 2.2 30-10 36.2-5.8 2.4-11.4 3-17.1 0.1z m0 0" fill="#0359B7" p-id="1610"></path><path d="M494.1 552.4c-16.8 0-44.5 0.8-44.2-4 0.4-3.8 2.3-66.8 8.8-76 3.5-5.5 40.3-4.5 44.9 1.1 2.7 3.3 15.1 46.1 0.8 61" fill="#6D5F03" p-id="1611"></path><path d="M508.1 660.5c-2 3.3-5.9 3.3-8.9 5-3.2-0.6-2.4-3.1-2.4-5.1v-79.5c0-2.1-0.6-4.6 2.7-4.9 8.2 10.6 6.5 23.1 6.5 35.2 0 14.6 0 29.2 0.1 43.8-0.1 2.1-0.4 4.3 2 5.5z m0 0" fill="#C2AB00" p-id="1612"></path><path d="M520.1 647.1c-1.6-2.6-2.5-5.3-2.5-8.5 0-12.4-0.3-24.9-0.3-37.3 0-2.4-1.3-5.9 3.5-5.9 4.1 0 5.9 2 5.8 5.9-0.3 9.6 0.7 19.3-0.5 28.9-0.3 2.1 0.2 4.2 0.4 6.3 1.3 4.9-1.2 8.2-4.6 11.2-0.6 0.1-1.3-0.1-1.8-0.6z m0 0" fill="#BBA501" p-id="1613"></path><path d="M587.5 498.3c-0.8-0.8-1-1.7-1.2-2.8-0.2-5.6-1.7-11.2 0.5-16.6 2.4-1.9 5.4-3 7.4-5.5 1.8 2.9 3.7 4.2 7.2 1.7 1.9-1.3 5.2-3 7.1-0.8 2.1 2.4 1.5 5.9-0.8 8.2-8.5 8.3-6.7 17.3-3 27 1.8 4.7-0.5 9.1-5.2 11.7-7.5 4.1-7.5 4.2-2.8 11.1 2.1 3 0.8 5.2-1.2 7.4-2.9-3.2-4.4-7.2-6.5-10.8-2.7-4.6 1.9-6.6 4.4-9.3-4.9-1.5-4.9-1.5-5.3-5.2" fill="#B57E96" p-id="1614"></path><path d="M587.6 514.9c1.6 4.7 6.8 1.2 9.7 4.2-2 1.4-4.1 2.3-5.7 4-2.4 2.4-2.9 4.1-0.3 6.9 2.4 2.6 4.2 6 4.1 9.8l-0.4 8.7c-4.3 1.2-6.8-2.9-10.4-3.7-2-4.9 3.2-4.2 5.1-6.5-2.2-2.7-9.5 2.5-8.6-5.1-1.2-1.9-0.9-4.1-0.6-6.1 1.5-8.8 1.4-9-7.4-9.7l-1.2-3.6c-1.6-2.5-3.8-5.1-1-8.1 3.4-3.7 7.6-3.3 11.9-2.2 3.6 3 5.1 6.8 4.8 11.4z m0 0" fill="#E173A5" p-id="1615"></path><path d="M587.5 478.8v16.7c-5.5 7.6-8.5 8.3-16.8 3.2-2-1.2-4.1-2.3-6.2-3.3-2.2-1.1-3.4-2.6-1.4-5 2.3-0.4 5.1 0.5 6.2-2.6 1.3-3.5 4.1-6.1 5.5-9.8 1-2.7 6.7-2.4 10.4-2.9 1.6 0.8 3.1 1.5 2.3 3.7z m0 0" fill="#E56FA5" p-id="1616"></path><path d="M555.2 498.1l-0.3 0.1c-3.7 0.5-6.1-1.3-7.8-4.5-0.5-0.9-1-2.5-1.6-2.6-5.4-0.6-6.3-1.9-4.9-8 0.9-4.1-0.4-6.2 4.8-4.9 1.2 0.3 2-0.5 2.8-1.3 1.2-1.2 2.2-3.1 4.2-1.5 1.3 1 1.6 2.8 0.7 4.1-2.1 3.5 1.1 5.4 2 8" fill="#AA7489" p-id="1617"></path><path d="M579.5 527.7c-1.8 0.4-2.1 1.7-2.3 3.4-1.2 9.6-1.2 9.6-10.4 7.1-2.2-0.4-4.3-1.3-5.3-3.3-1.2-2.4-2.1-5.4 2.7-4.4 4.6 2.4 5.2-0.3 4.7-3.9-0.4-2.5-1.8-5.5 1.1-6.9 2.9-1.5 6.4-1.8 9.4-0.4 5.3 2.4 0.8 5.6 0.1 8.4z m0 0" fill="#E173A5" p-id="1618"></path><path d="M584.8 476.1c-2.9-0.1-4.9 4-8.3 1.8-0.6-0.4-1.3 0.3-1.1 1 1.8 5.6-3.2 6.6-6.1 9.1-1.3-2.9-4.4-3.2-6.6-4.7-1.4-1-2.8-2.2-2.3-4.2 0.5-1.8 2.2-1.4 3.7-1.8 6.7-1.5 13.9-2.6 15.6-11.1 1.7 3.2 3.6 6.4 5.1 9.9z m0 0" fill="#A96571" p-id="1619"></path><path d="M553.7 512.3c-0.4 1.5-0.8 2.9-1.2 4.3-0.8 2.8-1.6 2.9-4.4 1.3-5.3-3.1-5-7.8-5.1-12.5-0.1-2.6 2.3-2.2 3.9-2.1 2.8 0.2 5.5 0.7 8.3 1.1 0.8 1.8-0.4 2.8-1.6 3.5-2.8 1.8-1.2 3 0.1 4.4z m0 0" fill="#A67C8D" p-id="1620"></path><path d="M564.2 530.4c-3.6 1-3 2.9-0.8 4.7 1.2 1 3.3 0.8 3.3 3-3.5 6.4-2.6 5.2-8 1.2-5.6-4.2-1-7.6-1.4-11.3-0.2-1.4 1.8-1.5 3.1-1.6 2.8 0.1 4.2 1.2 3.8 4z m0 0" fill="#AC6986" p-id="1621"></path><path d="M553.7 512.3c-1.7-0.3-4.3 1-4.8-1.7-0.5-2.4 1.6-3.1 3.5-3.6 1.3-0.3 2.1-1.3 2.6-2.6l1.1-1.1c3.3 1.7 6.4-3.1 9.8-0.3 0.8 0.7 2.8 0 2.7 1.9-0.1 1.4-1.5 1.9-2.8 2.1-4.1 0.7-8 1.7-10.9 4.9l-1.2 0.4z m0 0" fill="#DB6D9F" p-id="1622"></path><path d="M555.2 498.1c-3.5-2.7-3.6-7.9-7.5-10.3-1.1-0.6-1.6-1.5-0.8-2.6 0.9-1.2 1.9-0.6 2.7 0.2 1.6 1.7 3.4 2.6 5.7 2.2 0.9 1.4 3.6-0.3 3.8 2.2 0 1-0.2 2.2 0.2 3.1 0.7 1.6 3.2 2.5 1.7 4.8-1.8 2.7-3.9 0.2-5.8 0.4z m0 0" fill="#DD6DA0" p-id="1623"></path><path d="M584.5 544.8c4.7-2.2 6.6 3.3 10.4 3.7 0 2-0.6 4.8-2.8 3.6-3-1.6-9.4-0.5-7.6-7.3z m0 0" fill="#8B5765" p-id="1624"></path><path d="M508 416.4c-0.5-0.5-0.7-1.7-1.7-1.4-0.6 0.2-0.3 1.1-0.4 1.7-3.6 7.3-9.6 8.6-16.9 3.7-2.3-5 1.5-5.9 4.8-7.2 2-1 3.7-2.3 3.9-4.8-0.8-3-3.2-2.7-5.5-2.8-1.5-0.1-3.5 0.6-3.4-2.1-0.6-3.8-5.2-5.6-4-10.8 0.8-3.3 1.6-6.1 4-8.4 7.9-5.6 17.2-5.9 26.3-6.7 4.8 0.3 4.1 3.4 3.1 6.4-1 3-1.2 5.2 2.1 6.9 5.4 2.8-2.1 5.8-0.1 8.7-0.2 3.6-3.4 2.2-5.2 3.2-2.5 1.2-6.1 1.8-3.9 6 3.3 2.6 7.1 2.1 10.9 2.1 2.8 1.7 2 4.4 1.9 6.8l-1.2 1.4-14.7-2.7z m0 0" fill="#A91718" p-id="1625"></path><path d="M537 403.5c-5.8-2.6-6.9-7.1-2.7-12.3 1.5-1.9 1.7-4 1.4-6.1-0.6-5.1 1.8-6.7 6.4-6.1 7.2-0.9 14.1-0.6 19.7 5 0.9 2.2 3.9 0.6 4.9 2.6 3 12.8 3 12.8-8.9 19.4-3.7 2-4.3 4.1-0.2 6.4 0.6 0.2 1.2 0.5 1.7 0.7 2.9 1.2 8.4-0.4 6.1 6-2.5 5.5-7.4 3.9-11.7 3.7-3.7-0.2-4.5-3.3-5-6.4-0.3-0.7-0.1-1.9-1-2-0.7 0-0.9 1.2-1.5 1.8-0.3 2.9-3.3 4.1-4.2 6.6l0.1-0.1c-5.5 0.7-9.3-1.6-11.8-6.4-1-2.1-0.9-3.9 1.5-5 0.8-0.3 1.6-0.4 2.5-0.5 2.5-0.3 5.8 0.1 6.8-2.6 1-2.5-3.4-2.3-4.1-4.7z m0 0" fill="#AA1819" p-id="1626"></path><path d="M439.9 402.3c-0.5-3.1 0.3-6.8 3.6-9 2.8-4.3 6.9-5.3 11.7-4.3 2.6 0.5 5-0.1 7.5-0.6 6.1-1.2 11.8-1 14.7 5.9 0.5 0.4 1.4 1 1.3 1.3-1.6 4.8-0.9 10.3-5 14.2-2.9 3.7-1.6 5.5 2.7 5.7 1.5 0.1 3-0.4 4.5 0.2 3.1 2.3 3.2 4.7 0.5 7.4-5.1 5.5-6.4 5.5-15.7-1.1-1.9 2.1-0.1 6.4-3.9 7.2-2.5 0.6-4.6-0.5-6.4-2.2l-0.8-2.6c-8.9-1.2-10.7-5-13.4-12.6l-1.3-9.5z m0 0" fill="#AA1719" p-id="1627"></path><path d="M586.4 424.2c-6.6 4.1-9.8 3.9-14.5-1.2-1.1-7.1-1.1-7.3 5.3-5.5 2.1 0.6 3-0.9 4.5-1.5 0.5-0.3 1-0.6 1.5-0.8 3.1-1.6 1-3.8-0.3-4.3-5.6-2.4-6.6-7.8-8.8-12.4-0.2-0.6-0.2-1.2-0.2-1.8 0.2-1 1-1.5 1.8-2 2.5-6.3 7.5-7.4 13.4-6.1 2.5 0.5 5 1 7.5 0.6 5.7-0.8 10.7 0.2 13.9 5.6 4.1 3.3 2.3 8.4 3.8 12.6 0.4 1.1-9 7.4-10.5 7.2-1.5-0.2-3-0.6-4.4-0.5-2.2 0.1-4.5 0.5-5.2 3-0.6 2.3 1.9 3.2 2.8 4.8 1 1.7 5 0.7 4 3.2-0.9 2.3-3.3 4.6-6.5 4.5-2.2 0-4.9 1-5.9-2.3-0.3-1-0.9-1.9-1.4-2.9 0-0.4-0.1-1-0.3-1-0.5-0.2-0.3 0.4-0.5 0.8z m0 0" fill="#A91718" p-id="1628"></path><path d="M565.4 446c7.1 0.3 8.5 3.8-1.4 5.9-7.7 0-36.4 2-36.4 2-15.1 0-40.2-1.8-41.8-2.2-8.3-2.3-9.7-4.9 4.9-7.8 6.7-0.3 20.9-2.2 36.9-2.2l37.8 4.3z m0 0" fill="#931B14" p-id="1629"></path><path d="M481.2 378.3c-0.6-5.1 3.2-11.5 8.4-13.2 7.9-2.5 16-2.6 24.1-0.8 3.3 0.7 4.7 2.5 5.2 5.5 0.6 3.5-0.1 6.3-3.7 7.6l-34 0.9z m0 0" fill="#FAC100" p-id="1630"></path><path d="M561.9 384.1c-6.3-2.7-13.1-3.5-19.7-5-1-3.1-6-1.3-6.5-5.4-0.6-5.2-1.3-9.1 6.2-10.4 9.9-1.8 18.7-1.4 26.2 5.9 3.3 3.2 5.3 7.1 3.4 11.7-1.8 4.3-6.2 2.9-9.6 3.2z m48.7 10.5c-4.2-3-9-4.4-13.9-5.6-3-1.6-6.4-2.4-9.9-2.3-5.5 0.3-6.8-3.8-5.4-7.1 1.3-3 0.6-9.6 7.6-7.9 5.8 1.3 11.6 2.2 17.3 4.3 6 2.2 8.3 6.6 9.6 11.8 1 3.9-0.6 6.9-5.3 6.8zM455.2 389c-3.8 1.6-8.2 1.6-11.7 4.3-1.9-0.1-4.5 2.4-5.6-0.6-1.1-3-1.5-6.4 0.8-9.2 4.3-5.2 9.1-9.7 16.5-9.9 1.9-0.1 3.8-0.8 5.6-1.1 9.8-1.8 12.3 1.1 10.2 11.3-0.6 3.1-2.7 2.8-4.8 2.9-3.8 0-7.8-0.6-11 2.3z m0 0" fill="#F9BF00" p-id="1631"></path><path d="M530.3 385.2c-0.5 2.3-0.2 5.2-4.1 5.2-3.1 0-3.7-1.7-3.3-4.2 0.4-2.8 0.7-6 4.4-6 2.9 0.1 2.9 2.7 3 5z m0 0" fill="#B0AA83" p-id="1632"></path><path d="M534.8 433.4c-1.1 5.9-14.6 5.9-15.5 0.1 2-8.4 14.2-6.1 15.5-0.1z m0 0" fill="#A71817" p-id="1633"></path><path d="M552.5 438.5c-1.7-3.9-2.5-2.9 0-5.5 4-0.7 9.5-1.3 11.5 3.2l-1.2 2c-3.4 1.9-6.8 2.4-10.3 0.3z m0 0" fill="#218957" p-id="1634"></path><path d="M505.9 416.7c-1.3-1-3.1-1.9-1.9-4 0.3-0.6 1.5-1.1 2.1-0.9 2.5 0.7 2.4 2.6 1.8 4.6l-2 0.3z m0 0" fill="#B87875" p-id="1635"></path><path d="M546.4 416.3c-0.4-1.9-0.9-3.8 1-5.3 0.3-0.2 1.3-0.1 1.6 0.3 1.6 1.7 1.3 3.5-0.1 5.1l-2.5-0.1z m0 0" fill="#B6827C" p-id="1636"></path><path d="M526.9 378.5c-1.6-0.1-2.1-1.2-2.1-2.5-0.1-0.5 0.1-1.1 0.5-1.4 0.4-0.4 0.9-0.6 1.4-0.6 1.3-0.1 2.6 0.2 2.5 1.9-0.1 1.2-1 2.3-2.3 2.6z m0 0" fill="#B0AA83" p-id="1637"></path><path d="M586.4 424.2c-1.3-1.7-1.9-3.4 0.4-4.7 0.5-0.3 1.8 0.1 2.1 0.6 1.5 2.1-0.9 2.7-1.7 4-0.2 0-0.5 0-0.8 0.1z m0 0" fill="#A36F6F" p-id="1638"></path><path d="M662.7 484c9 0.2 10.1 5.7 9.1 13-0.4 2.7-0.1 5.6-0.1 8.4 0 9.8-0.7 10.5-10.5 10.9l-8.8-0.4c0-7.5-0.1-15-0.1-22.6 0-10.2 0-10.2 10.4-9.3z m0 0" fill="#DADADA" p-id="1639"></path><path d="M678 536.7l-2.3-0.3c-0.5-1.5-1.1-2.9-2.8-3.2-6.5-0.9-3.3-5-2.6-8.1 1.1-4.4 4.1-3.3 7-2.1 2.4 0.9 4.1 1.9 2.7 5.2-1.1 2.6-1.3 5.7-2 8.5z m0 0" fill="#C19405" p-id="1640"></path><path d="M694.1 534.1c-0.1 1.7-0.1 3.5-0.5 5.1-0.3 1-1 1.8-1.9 2.4-0.5 0.3-2.1-0.5-2.1-0.7 0.1-4.3-6.5-4.4-5.6-8 0.7-3 4.6-4.8 7.8-4.4 2.7 0.3 3.3 3 2.3 5.6z m0 0" fill="#C08E05" p-id="1641"></path><path d="M637.7 531.6c-4.5-1.7-6.7-5.3-8.4-9.3-0.4-0.8 0.1-1.7 1.1-2 1.5-0.5 3.2-0.3 4.1 1 1.9 2.8 3.6 5 6.4 0.8 0.4-0.7 1.8-0.6 2 0.4 0.6 2.2-0.7 4.1-1.5 6-0.7 1.6-1.9 3.1-3.7 3.1z m0 0" fill="#BF8207" p-id="1642"></path><path d="M667.2 520.7c-1.3 2.6-3.5 4-3.3 6.7 0.1 1.3-0.2 2.8-1.9 2.6-1.3-0.2-1.8-1.5-2.1-2.9-1.1-5.5 0.6-7.2 7.3-6.4z m0 0" fill="#C08D06" p-id="1643"></path><path d="M648.6 520.4c2.6 3.3 3.2 6 1.3 8.9-0.2 0.3-1.4 0.3-1.6 0.1-2.1-2.8-1.6-5.5 0.3-9z m0 0" fill="#C08A06" p-id="1644"></path><path d="M671.6 630.1c-4.9 0.2-9.9 0.3-14.9 0.5-2.8 0.1-4.5-0.7-4.5-4 0.1-14.3 0-28.5 0-42.7 0-1.7 0.8-2.8 2.3-3.5 5.6 1.7 11 3.7 15.9 6.8" fill="#DADADA" p-id="1645"></path><path d="M682 620.8c0.1 10.2 0 10.2-10.4 9.3-0.5-14.3 1.2-28.6-1.1-42.9 3.9 0.9 8 1.6 11.2 4.4l0.3 29.2z m0 0" fill="#C2C0BE" p-id="1646"></path><path d="M393.1 630.1c-19.3 0.9-19.3 0.9-19.4-18.2 0-6.8-0.2-13.7-0.2-20.5 3.2-3.5 8.4-2.7 12-5.3 8.5-1.4 9.6-0.6 9.7 7.6 0.2 9.7 0.1 19.4 0 29.1 0 2.7-0.1 5.3-2.1 7.3z m0 0" fill="#D9D9D9" p-id="1647"></path><path d="M382.7 570.4c-9.2 2.4-9.4 2.2-9.3-7.6 0.1-5.5 0-11.1 0-16.6 0-5.5 2-9.1 8-9.3 13.7-1.6 13.8-1.5 13.6 12.2-0.1 5.5 1.6 11.2-1.9 16.3-3.5 1.6-7 3.3-10.4 5z m0 0" fill="#D8D6D6" p-id="1648"></path><path d="M393.1 630.1c0-12.2-0.3-24.3 0.3-36.5 0.3-6.4-2-8.5-7.9-7.5 4.2-1.9 8.2-4.4 12.8-5.2 2 1.8 1.9 4.2 2 6.5v36c0 2.4 0 4.8-1.8 6.6-1.9 0.1-3.7 0.1-5.4 0.1z m0 0" fill="#ADACAC" p-id="1649"></path><path d="M499.5 438.9c-3.3-0.1-5.8 1-9.8-2.4 2.7-4.7 7.8-4.7 11.1-3.4 1.5 1-0.5 4.6-1.3 5.8z m0 0" fill="#1A895C" p-id="1650"></path><path d="M380.2 517.5c-3.8 0.2-5.3-1.6-5.2-5.5 0.2-7.5 0.2-15 0-22.5-0.1-3.3 1.3-4.3 4.5-4.5 13.7-0.8 13.7-0.9 13.7 12.7 0 2.4-0.3 4.8 0.1 7.1 0.8 5.6-1 9.5-6.5 11.5-2.1 1.5-4.4 1.3-6.6 1.2z m0 0" fill="#D9D9D9" p-id="1651"></path><path d="M371.3 523.5c1.8-0.1 3.4 0.6 4.4 2.1 1.2 1.8 0.2 3.2-1.2 4.5-0.6 0.5-1.3 1.1-1.8 1.8-1.1 1.6 0.8 6.1-3.2 4.7-3.7-1.3-4.3-6-4.4-9.4 0-3.2 3.8-2.9 6.2-3.7z m0 0" fill="#C08D06" p-id="1652"></path><path d="M403 518.6c1.6 4.4-1.2 7.7-3.2 11-1.1 1.8-3 2.8-4.8 0.7-2-2.4-4.8-5.3-3.7-8.4 1.2-3.3 3.2-0.6 5 0.5 4.5 2.8 3.5-3.8 6.7-3.8z m0 0" fill="#B8710E" p-id="1653"></path><path d="M388.5 532.7c-2.2 0.8-4.2 0.9-6 0.1-4-1.8-3.7-5.4-3.5-8.9 0.1-1.2-0.2-3.2 1.3-3.2 3.7-0.2 2.6 3.8 4.1 5.6 1.7 1.8 2.8 4.1 4.1 6.4z m0 0" fill="#BD7C09" p-id="1654"></path><path d="M434.6 463.1c0.5-3.2 3-2.5 5-2.5 26.8 0 53.6 0.1 80.3-0.1 4.3 0 5.5 1.5 5.5 5.6-0.2 18.4-0.1 36.7 0 55.1 0 3.1-0.5 4.9-4.2 5.8-5.3 1.4-10.3 4-15.5 6.1-3.3 0.2-5.2-0.6-5.1-4.6 0.3-8.4-0.1-16.6 2.2-24.9 1.2-4.3 2.5-9.5-3.3-13.1-2.8-1.7 2.8-4.9 1.2-7.9-1.8-2.6-4.6-2-7.1-2.3-3.2-0.4-5.7-0.8-5.4-5.3 0.3-5.4-4.2-5.8-8.2-6-4-0.2-6.6 1.5-6 6.2 0.3 1.5-0.4 3.1-1.6 4-3.7 2-8.3-0.9-11.8 2.1-0.1 2.1-0.4 4.3 0.6 6.3 1.1 2.3-0.1 3-2 4.3-4 2.7-5.5 7.5-2.4 11.1 4 4.7 3.6 9.8 3.6 15.1 0 4.9-0.1 9.9-0.1 14.8-8.9-1.2-5.8 5.5-6.4 9.7-0.7 5.1 1.8 6.3 6.4 6 4.3-0.3 8.6-0.1 12.9-0.1 5.7 2.7 11.8 0.6 17.7 1.3 2.4 0.3 5.4-0.9 5.7 3.2 0.3 3.6-1.2 5.9-4.5 6.7-3.5 0.9-7.1 1.7-10.8 1.7-13.2-0.1-26.3-0.2-39.5 0.1-5.6 0.1-7.7-1.6-7.5-7.4 0.3-11.4 0.1-22.8 0.1-34.3 0.2-18.7 0.2-37.7 0.2-56.7z m0 0" fill="#AB1519" p-id="1655"></path><path d="M464.9 635.6l-0.6-72.4c8.8 0.9 9.1 1.2 9.1 9.6v90.5c0 2.1-0.8 3.2-3 3.3-2.6 0.1-3.4-1.2-3.4-3.6 0-7.3 0.1-14.7-0.1-22 0-2 1.2-4.6-2-5.4z m0 0" fill="#9E1717" p-id="1656"></path><path d="M495.5 666.6l-2.6 1.4c-7 0.8-7.1 0.8-7.1-5.7v-91.9c0-2.6-0.2-5.2 1.9-7.3 5-0.9 6.7 0.9 6.7 6.2-0.2 29.1-0.1 58.1-0.1 87.2-0.1 3.4 0.2 6.7 1.2 10.1z m0 0" fill="#9F2115" p-id="1657"></path><path d="M460.5 663.9c-2.8-1.5-4-3.5-4-7.1 0.2-28.6 0.1-57.2 0.1-85.9 0-1.1 0-2.2 0.1-3.2 0.2-1.9 1.1-3.4 3.2-3.2 2 0.2 1.9 2 1.9 3.5 0 5.2-0.3 10.4 0.1 15.5 1.1 14.5-0.1 29.1-0.1 43.6 0 3 0 6 2.6 8.3 0 8.2-0.1 16.3-0.1 24.5 0.1 2.7-0.2 4.8-3.8 4z m0 0" fill="#C4AD00" p-id="1658"></path><path d="M474.2 547.4c0.1-1.5 0.1-3 0.4-4.5 0.5-3-1.6-7.6 3.6-8.1 6.2-0.6 8.4 2 8.6 8.8 0 1.3 0.2 2.6 0.4 3.8-4.4 1.8-8.7 2.1-13 0z m0 0" fill="#133DC3" p-id="1659"></path><path d="M476.2 667.7c0-32.7-0.1-65.5-0.1-98.2 0-2.9-0.3-5.7 4.1-5.5 4.1 0.1 3.6 2.8 3.6 5.4 0 33.2-0.1 66.3-0.1 99.5l-3.6 0.6-3.9-1.8z m0 0" fill="#C3B000" p-id="1660"></path><path d="M530.6 666.2c2.3 5.6 5 1.1 7.6 0.3 3 0.1 6.1-0.1 9 0.4 2.9 0.6 3.4 2.5 0.9 4.5-1.9 1.5-4.1 2.6-6.5 2.6-4.9 0-10.3-2.3-13.8 3.7-0.6 1-2.1-3.4-2.7-4.6-0.6-0.8-5.4 2.7-12.2 2.6-2.9-0.8-6-6.2-0.5-8.4 2.8-0.2 14.4 2 14-0.8 1.4-1 2.8-1.2 4.2-0.3z m0 0" fill="#2A6355" p-id="1661"></path><path d="M522.8 356.8c-1.9-5.3 2.6-4.2 5.1-5.1 0.4 0.1 0.8 0.1 1.2 0.1 2.8 3 3.2 5.2-1.9 5.2-1.5 0-3-0.1-4.4-0.2z m0 0" fill="#1F63A5" p-id="1662"></path><path d="M454.5 409.8c0.6 0 1.3-0.1 1.9-0.1 2.4 0.2 6.3-0.7 6.3 2.4 0.1 2.8-0.9 6.9-5.6 6.9-2.8 0-5.2-0.9-6.2-3.7-1-3.1 2.4-3.7 3.6-5.5z m0 0" fill="#A68503" p-id="1663"></path><path d="M572.1 623.7c-0.1 2 0.1 3.9-1.2 5.6-2.6 3.5-2.5 7.1 0 10.7 1.2 1.7 1.2 3.6 1.2 5.6 0 1.9 0.2 4.1-2.1 4.9-1.9 0.8-3.9 0.5-5.2-1.3-1.8-2.4-4.5-3.2-7.1-4.1-2.1-0.8-4.9-0.7-5-4-0.2-3.5 0.7-7.2 3.8-8.3 5.5-1.9 9.3-4.5 10.4-10.5 0.2-1.3 2-3.8 4.2-3.1 1.8 0.7 0.6 3.1 1 4.5z m0 0" fill="#AD1E17" p-id="1664"></path><path d="M578.3 619.2c4.6 2 1.2 8.2 4.8 10.3 3.5 2 8 2.1 10.8 5.4 3.2 3.7 1.8 8.9-2.9 10.2-2.9 0.8-5.7 2-8.1 3.7-4.4 3-8.3 1.3-6.6-3.1 3.5-8.9 0.3-17.5 1.3-26.1-0.1-0.1 0.2-0.2 0.7-0.4z m0 0" fill="#AD1D17" p-id="1665"></path><path d="M579.4 607.3c2.1-3 4.5-5.6 8.2-6.9 3.8-1.3 6.9-3.6 6.7-8.3-0.1-2.1 1.6-3.4 2.9-4.9 1.3-1.5 2.4-4.6 4.8-3.1 2.1 1.3-0.6 3.3-0.9 5.1-0.6 3.6-1.5 7.2 1.7 10.2 2 1.9 1 4-0.2 5.8-1.2 1.9-3.5 4.2-5.1 2.9-6.2-4.9-11.8-0.4-17.7 0.1l-0.4-0.4v-0.5z m0 0" fill="#AD1F17" p-id="1666"></path><path d="M597.4 579.1c-2 4.3-4 8.3-8.7 9.8-4 1.3-6.6 3.4-6.7 8.2-0.1 2.3-1.6 5.1-4.5 3.9-2.3-0.9-2.1-3.8-0.8-5.6 2.6-3.8 2-7.5 0.7-11.6-1.3-3.9 2-6.9 5.3-4.8 5.1 3.2 9.5 2.1 14.7 0.1z m0 0" fill="#AE2117" p-id="1667"></path><path d="M551.7 613.6c5.5 1.5 11 1.3 16.4-0.2l-0.1-0.1c-1.2 2.6-3.2 4.9-5.6 5.9-5.1 2.1-8.7 4.7-9.3 10.8-0.2 1.8-2.5 4.4-5.3 3.4-2.6-1-2-3.5-1.4-5.6 0.7-2.5 1.9-4.9-0.1-7.2l5.4-7z m0 0" fill="#AD2017" p-id="1668"></path><path d="M603.1 617.8c-3.2 4.2-3.2 9.1-1.6 14.3 0.3 1-0.9 1.8-2.1 1.9-2.5 0.1-4.8-1.4-4.8-3.4-0.1-7-4.1-10.2-10-12.2-1.5-0.5-3.6-1.9-2.8-3.7 0.9-2.3 2.9-0.4 4.4-0.1 3.5 0.5 6.7-0.3 10.1-1 3-0.7 6.2-0.4 6.8 4.2z m0 0" fill="#AE2217" p-id="1669"></path><path d="M579.4 607.3c0.1 0.3 0.2 0.6 0.3 1-0.8 8.3-3.4 9.5-11.7 5.1l0.1 0.1v-5.2l-0.1 0.1c3.6-3.5 7.2-5.4 11.4-1.1z m0 0" fill="#368F53" p-id="1670"></path><path d="M470.8 510c1.4 2.6 3 4.9 3.1 8.1 0.2 4.3-1.3 6.4-5.6 6.2-6.8-1.4-3.4-6.7-3.7-10.3-0.3-4.3 3.1-4.2 6.2-4z m0 0" fill="#183B9F" p-id="1671"></path><path d="M492.9 524.3l-4.8-0.4c-0.1-2.5-0.4-5.1-0.4-7.6-0.1-2.8 0.6-5.2 4-5.4 3-0.2 5.4 1.6 5.5 4.2 0.2 3.4 0.8 7.8-4.3 9.2z m0 0" fill="#0C34AB" p-id="1672"></path><path d="M494.1 500.5c-2.7 0-3.4-2-3.5-3.8-0.1-2-0.1-4.8 2.4-5.2 2.8-0.5 4.1 1.8 4.5 4.4 0.5 2.6-1.3 3.7-3.4 4.6z m0 0" fill="#9F8D00" p-id="1673"></path><path d="M465.5 490.8c2.3 0.7 3.6 2 3.9 4.1 0.3 1.9 0.5 4.1-2.2 4.4-2.3 0.3-2.8-1.5-2.8-3.3 0-1.7-0.3-3.7 1.1-5.2z m0 0" fill="#A18F00" p-id="1674"></path><path d="M479.8 494.1c1.5 0 2.6 0.6 2.6 2.1 0 1.7-0.5 3.7-2.5 3.7-1.6 0-2.1-1.9-2.3-3.3-0.3-1.5 0.6-2.4 2.2-2.5z m0 0" fill="#AD9900" p-id="1675"></path><path d="M537.5 546.1c1 0.8 2 1.4 2.5 2.2 1.4 2.8 4.5 6.8 3.6 8.3-1.5 2.6-3.5 4.8-4.1 7.9-0.1 0.5-1.9 1.1-2.8 0.9-5.1-1.1-4.8-6.5-5.5-9.6-0.8-3.1 2.9-7 6.3-9.7z m0 0" fill="#918D1A" p-id="1676"></path><path d="M528.1 562.8c2.6 1.7 3.1 5.5 4.6 8 2.2 3.8-2.3 7.4-4.2 10.9-0.8 1.6-4.3 0.5-4.7-1.3-0.8-3.6-5.7-7.6-0.3-11.2 1.6-1.1 1.6-2.4 1.8-3.8 0.2-1.2 0.5-2.4 2.8-2.6z m0 0" fill="#898314" p-id="1677"></path><path d="M523.9 542.7c0 7.4-0.1 17.7-5.7 17.3-2.8-0.2-2.4-3.4-3.6-4.4-7.1-6 5.8-18.4 9.3-12.9" fill="#657234" p-id="1678"></path><path d="M537.3 663.2c-1.9 2.5-10.7 2.2-16.4 1.5-3.3-0.4-4.1-7.5-0.9-8.6 7.8-2.5 7.8-2.5 16.6-1.5 1.1 3.6 2.7 5.2 0.7 8.6z m0 0" fill="#D6B37C" p-id="1679"></path><path d="M525.7 664.2c-0.7-3.6-0.7-7.2 0.9-10.6 2.2-0.6 2.6 1.5 3.7 2.5 2.5 3.3 1.1 6.7 0.4 10.1l-4.1 0.2-0.9-2.2z m0 0" fill="#822C24" p-id="1680"></path><path d="M583.7 504.6c2.2-1.6 2.3-4.5 3.8-6.6 4.5-1.4 4.5-4.7 3.5-8.2-0.7-2.3-1.3-4.6-0.2-6.9 1-2.1 2.9-3.5 5.3-2.8 2.7 0.8 1.7 2.9 1.3 4.8-1.3 6.4-0.8 12.7 0.4 19.2 2 11.3 0.6 12.6-10.1 10.8-1.8-3.3-3.5-6.5-4-10.3z m0 0" fill="#D7D4D5" p-id="1681"></path><path d="M572.8 413.1c-0.6 0-1.3-0.1-1.9-0.1-3.3 0.1-6.3-0.3-5.7-4.7 0.4-2.8 2.8-3.8 4.7-2.7 2.6 1.4 7.1 2.6 4 7.4-0.4 0-0.8 0.1-1.1 0.1z m0 0" fill="#B08D03" p-id="1682"></path><path d="M522.8 408.6c0.1-0.8 0.1-1.6 0.1-2.4 1.8 0 3.6-2.2 5.3-0.1 0.8 1 0.7 2-0.2 2.8-1.8 1.9-3.5 0.7-5.2-0.3z m0 0" fill="#A91718" p-id="1683"></path></svg>